<svg id="Layer_1" data-name="Layer 1" xmlns="http://www.w3.org/2000/svg" viewBox="0 0 1098 1132"><rect x="-6" y="-6" width="1124" height="1148" style="fill:#114c98"/><circle cx="548" cy="582" r="530.65" style="fill:#114c98"/><polygon points="548 1023.99 1015.3 472.73 852.99 318.07 243.01 318.07 80.69 472.73 548 1023.99 548 1023.99" style="fill:#e21e26;fill-rule:evenodd"/><path d="M548,1037.64,68.57,472.09l170.9-162.84H856.53l170.9,162.84-5.39,6.35ZM92.82,473.38l455.18,537,455.18-537L849.46,326.91H246.54Z" style="fill:#1c1c1b"/><path d="M548,947.22,657.31,818.86c-93.24,20.45-178.73,5.38-224.1-6.43L548,947.22ZM758.25,367.08H708.89l34.42,37.69c6.66-8,12.62-23.06,14.94-37.69Zm86.67,231.48L949.46,475.8l-77.09-73V485H714.64C703.52,436,678.8,406.5,642.67,390c-26.21-11.93-68.21-20.92-112.08-23H493.71C439.82,369.72,389,384.58,367,419.14c-39.5,62.27,65.25,84.22,108.72,87.28,56,3.95,112.31.26,168.44,1.53,68.45,1.56,132.6,23.44,183.75,68.91,4.77,4.24,11,12.42,17,21.7ZM312.73,367.08H261.38L146.54,475.8l54.47,64c14-72.25,75-138.44,111.72-172.68Zm-38.6,258.55,86.79,101.91c10.91-13.1,26.3-23.75,36.75-25.12,22.77-3,45.95-.75,68.9,0,37.09,1.21,48.13,20.56,73.51,45.94,45.83,0,97.36,4.79,142.4-4.59,30.81-6.42,94.85-47.33,36.75-68.91C683,661.4,636.29,661,598.26,658c-100-7.83-212.18-.85-309.31-27.57-5-1.38-9.94-3-14.82-4.82Z" style="fill:#fded08;fill-rule:evenodd"/><path d="M548,956.05a8.82,8.82,0,0,1-6.72-3.1L426.49,818.15a8.83,8.83,0,0,1,8.95-14.27c42.5,11.07,127.62,26.61,220,6.35A8.83,8.83,0,0,1,664,824.58L554.72,953A8.82,8.82,0,0,1,548,956.05Zm-90.73-129L548,933.6l86.39-101.44C564.39,843.22,500.38,835.84,457.27,827.05Zm155.17-68.63c-12.52,0-25.07-.32-37.47-.63-12.13-.31-23.59-.6-34.89-.6a8.83,8.83,0,0,1-6.24-2.58c-4.31-4.31-8.21-8.44-11.89-12.34-17.72-18.79-28.41-30.13-55.66-31-5.1-.17-10.2-.41-15.32-.65-17.29-.8-35.18-1.64-52.15.58-7.05.92-20.62,9.41-31.11,22a8.79,8.79,0,0,1-6.74,3.18h-.05a8.84,8.84,0,0,1-6.72-3.1L267.41,631.35a8.83,8.83,0,0,1,9.79-14c5.05,1.88,9.66,3.38,14.09,4.6,66.22,18.21,140.45,20.55,212.23,22.81,31.67,1,64.43,2,95.43,4.46,7,.55,14.25,1,21.69,1.48,33.23,2.09,70.9,4.46,101.67,15.89,25.46,9.45,29.93,23,29.2,32.66-2,26.13-44.81,48.51-67.23,53.17C661.25,757.21,636.89,758.42,612.44,758.42Zm-68.67-18.88c10.41.05,21.18.33,31.64.59,35.64.91,72.45,1.83,105.27-5,21.16-4.4,52.26-24.39,53.22-37.2.53-6.94-10.89-12.23-17.74-14.78-28.33-10.52-64.62-12.81-96.63-14.83-7.53-.47-14.89-.93-21.95-1.49-30.6-2.39-61.69-3.37-94.62-4.41-68.07-2.15-138.3-4.36-202.91-20l61.16,71.82c10.27-10,23.61-19.06,35.31-20.59,18.55-2.44,37.22-1.56,55.28-.71,5,.24,10.05.47,15.07.64,34.52,1.13,49.26,16.76,67.93,36.55C537.63,733.15,540.59,736.29,543.77,739.54ZM844.92,607.39l-.59,0a8.8,8.8,0,0,1-6.83-4c-6-9.23-11.57-16.48-15.41-19.89C774.77,541.41,713.2,518.35,644,516.78c-21.94-.49-44.37-.23-66,0-33.67.41-68.48.83-102.81-1.59-4-.29-99-7.46-121.15-51.36-7.59-15-5.7-31.65,5.59-49.46,20.94-33,68.42-53,133.7-56.16h37.31C575,360.3,618.15,369.18,646.33,382c38.6,17.57,63.27,48.41,75.24,94.15h142V402.81a8.83,8.83,0,0,1,14.9-6.41l77.1,73a8.85,8.85,0,0,1,.65,12.14L851.64,604.29A8.84,8.84,0,0,1,844.92,607.39ZM617,498.84c9.13,0,18.28.08,27.37.28,73.44,1.67,138.94,26.27,189.42,71.14A90.06,90.06,0,0,1,845.68,584l91.63-107.59-56.12-53.12V485a8.83,8.83,0,0,1-8.83,8.83H714.64a8.82,8.82,0,0,1-8.61-6.87c-9.95-43.79-31.87-72.86-67-88.86-25.85-11.76-67.55-20.26-108.83-22.18H493.71c-58.94,2.9-101.44,19.94-119.21,47.95-7.84,12.37-9.4,22.85-4.75,32.05,13.13,26,71,39.19,106.63,41.7,33.6,2.37,68,1.95,101.36,1.55C590.65,499,603.82,498.84,617,498.84ZM201,548.59a8.86,8.86,0,0,1-6.73-3.11l-54.47-64a8.85,8.85,0,0,1,.65-12.14L255.31,360.66a8.85,8.85,0,0,1,6.07-2.41h51.35a8.83,8.83,0,0,1,6,15.28c-34.91,32.57-95.49,97.69-109.07,167.91a8.83,8.83,0,0,1-6.43,6.86A8.56,8.56,0,0,1,201,548.59Zm-42.32-72.14,37.83,44.42c17.08-58.42,61-111.26,94.42-145h-26ZM743.32,413.6a8.87,8.87,0,0,1-6.53-2.87L702.37,373a8.82,8.82,0,0,1,6.52-14.78h49.36A8.81,8.81,0,0,1,767,368.46c-2.59,16.3-9.21,32.77-16.87,42a8.83,8.83,0,0,1-6.58,3.18Zm-14.41-37.69L742,390.22a88.41,88.41,0,0,0,5.29-14.31Z" style="fill:#1c1c1b"/></svg>